<svg width="100" height="100" viewBox="0 0 100 100" fill="none" xmlns="http://www.w3.org/2000/svg">
<path d="M89.5834 50C89.5834 60.4981 85.4131 70.5663 77.9897 77.9896C70.5664 85.4129 60.4983 89.5833 50.0001 89.5833C43.2168 89.5833 36.8334 87.875 31.2501 84.8708C23.4668 80.675 18.2293 84.575 13.6084 85.275C13.2629 85.3245 12.9105 85.2914 12.5803 85.1784C12.25 85.0655 11.9512 84.8758 11.7084 84.625C11.3459 84.2401 11.1061 83.7561 11.0193 83.2345C10.9324 82.713 11.0026 82.1774 11.2209 81.6958C13.0376 77.425 14.7001 69.325 12.4293 62.5C11.0921 58.4683 10.4126 54.2476 10.4168 50C10.4168 39.5018 14.5871 29.4337 22.0105 22.0103C29.4338 14.587 39.5019 10.4167 50.0001 10.4167C60.4983 10.4167 70.5664 14.587 77.9897 22.0103C85.4131 29.4337 89.5834 39.5018 89.5834 50Z" stroke="#08996B" stroke-width="5" stroke-linecap="round" stroke-linejoin="round"/>
<path d="M50.0002 66.6667C50.0002 66.6667 33.3335 56.3708 33.3335 46.4125C33.3335 41.4875 36.8418 37.4958 41.6668 37.4958C44.1668 37.4958 46.6668 38.3583 50.0002 41.7875C53.3335 38.3583 55.8335 37.4958 58.3335 37.4958C63.1585 37.4958 66.6668 41.4875 66.6668 46.4125C66.6668 56.3708 50.0002 66.6625 50.0002 66.6625" stroke="#08996B" stroke-width="5" stroke-linecap="round" stroke-linejoin="round"/>
</svg>
