<svg width="52" height="37" viewBox="0 0 52 37" fill="none" xmlns="http://www.w3.org/2000/svg">
<mask id="mask0_826_3449" style="mask-type:alpha" maskUnits="userSpaceOnUse" x="0" y="0" width="52" height="37">
<rect y="0.75" width="52" height="36" fill="#016FD0"/>
</mask>
<g mask="url(#mask0_826_3449)">
<rect y="0.75" width="52" height="36" rx="4" fill="white"/>
<path d="M10.1146 28.2911V20.0317H18.7765L19.7058 21.2549L20.6659 20.0317H52.1064V27.7215C52.1064 27.7215 51.2841 28.2829 50.3332 28.2911H32.924L31.8762 26.9892V28.2911H28.4427V26.0686C28.4427 26.0686 27.9737 26.3789 26.9597 26.3789H25.791V28.2911H20.5924L19.6644 27.0418L18.7222 28.2911H10.1146Z" fill="#016FD0"/>
<path d="M0 13.8066L1.95329 9.20898H5.3313L6.43981 11.7844V9.20898H10.639L11.2989 11.0704L11.9386 9.20898H30.7886V10.1448C30.7886 10.1448 31.7795 9.20898 33.408 9.20898L39.5241 9.23056L40.6135 11.7722V9.20898H44.1276L45.0948 10.669V9.20898H48.6411V17.4684H45.0948L44.1679 16.0037V17.4684H39.0049L38.4857 16.1664H37.0977L36.587 17.4684H33.0856C31.6843 17.4684 30.7886 16.5517 30.7886 16.5517V17.4684H25.5094L24.4616 16.1664V17.4684H4.83087L4.31201 16.1664H2.92846L2.41327 17.4684H0V13.8066Z" fill="#016FD0"/>
<path d="M2.64323 10.2271L0.00866699 16.4121H1.7239L2.21001 15.1736H5.03599L5.51958 16.4121H7.2726L4.64055 10.2271H2.64323ZM3.61796 11.6665L4.47936 13.8308H2.75405L3.61796 11.6665Z" fill="white"/>
<path d="M7.4541 16.4107V10.2256L9.89154 10.2347L11.3092 14.2225L12.693 10.2256H15.1109V16.4107H13.5796V11.8532L11.9563 16.4107H10.6133L8.98547 11.8532V16.4107H7.4541Z" fill="white"/>
<path d="M16.1599 16.4107V10.2256H21.1571V11.6091H17.7074V12.6671H21.0765V13.9692H17.7074V15.0679H21.1571V16.4107H16.1599Z" fill="white"/>
<path d="M22.0424 10.2271V16.4122H23.5737V14.2148H24.2185L26.0547 16.4122H27.9261L25.9111 14.1335C26.7381 14.063 27.5911 13.3463 27.5911 12.2337C27.5911 10.9321 26.5794 10.2271 25.4502 10.2271H22.0424ZM23.5737 11.6106H25.3243C25.7442 11.6106 26.0496 11.9422 26.0496 12.2616C26.0496 12.6726 25.6539 12.9127 25.3469 12.9127H23.5737V11.6106Z" fill="white"/>
<path d="M29.782 16.4107H28.2184V10.2256H29.782V16.4107Z" fill="white"/>
<path d="M33.4892 16.4107H33.1517C31.5187 16.4107 30.5272 15.1117 30.5272 13.3436C30.5272 11.5319 31.5076 10.2256 33.5698 10.2256H35.2624V11.6905H33.508C32.6708 11.6905 32.0788 12.3502 32.0788 13.3589C32.0788 14.5567 32.7557 15.0598 33.731 15.0598H34.134L33.4892 16.4107Z" fill="white"/>
<path d="M36.8225 10.2271L34.188 16.4121H35.9032L36.3893 15.1736H39.2153L39.6989 16.4121H41.4519L38.8199 10.2271H36.8225ZM37.7973 11.6665L38.6587 13.8308H36.9334L37.7973 11.6665Z" fill="white"/>
<path d="M41.629 16.4107V10.2256H43.576L46.062 14.1117V10.2256H47.5934V16.4107H45.7094L43.1604 12.4229V16.4107H41.629Z" fill="white"/>
<path d="M11.163 27.234V21.0488H16.1601V22.4324H12.7105V23.4903H16.0795V24.7925H12.7105V25.8911H16.1601V27.234H11.163Z" fill="white"/>
<path d="M35.6477 27.234V21.0488H40.6449V22.4324H37.1952V23.4903H40.5481V24.7925H37.1952V25.8911H40.6449V27.234H35.6477Z" fill="white"/>
<path d="M16.3546 27.2339L18.7876 24.1795L16.2966 21.0488H18.226L19.7095 22.9842L21.198 21.0488H23.0518L20.5935 24.1414L23.0311 27.2339H21.1021L19.6616 25.329L18.2562 27.2339H16.3546Z" fill="white"/>
<path d="M23.2112 21.0493V27.2345H24.7829V25.2813H26.3948C27.7588 25.2813 28.7927 24.5506 28.7927 23.1297C28.7927 21.9526 27.9818 21.0493 26.5938 21.0493H23.2112ZM24.7829 22.4481H26.4805C26.9211 22.4481 27.2361 22.7208 27.2361 23.1602C27.2361 23.573 26.9227 23.8723 26.4754 23.8723H24.7829V22.4481Z" fill="white"/>
<path d="M29.4586 21.0488V27.234H30.99V25.0366H31.6348L33.4709 27.234H35.3424L33.3274 24.9552C34.1543 24.8848 35.0074 24.1681 35.0074 23.0554C35.0074 21.7539 33.9956 21.0488 32.8665 21.0488H29.4586ZM30.99 22.4324H32.7405C33.1604 22.4324 33.4659 22.764 33.4659 23.0834C33.4659 23.4943 33.0701 23.7345 32.7632 23.7345H30.99V22.4324Z" fill="white"/>
<path d="M41.3553 27.234V25.8911H44.4201C44.8736 25.8911 45.0699 25.6437 45.0699 25.3723C45.0699 25.1123 44.8742 24.8494 44.4201 24.8494H43.0352C41.8313 24.8494 41.1609 24.1089 41.1609 22.997C41.1609 22.0052 41.7749 21.0488 43.5638 21.0488H46.5459L45.9011 22.4405H43.322C42.8289 22.4405 42.6772 22.7017 42.6772 22.9512C42.6772 23.2076 42.8647 23.4903 43.2414 23.4903H44.6921C46.0341 23.4903 46.6164 24.259 46.6164 25.2655C46.6164 26.3477 45.9675 27.234 44.6191 27.234H41.3553Z" fill="white"/>
<path d="M46.9746 27.234V25.8911H50.0394C50.4929 25.8911 50.6892 25.6437 50.6892 25.3723C50.6892 25.1123 50.4935 24.8494 50.0394 24.8494H48.6544C47.4506 24.8494 46.7802 24.1089 46.7802 22.997C46.7802 22.0052 47.3941 21.0488 49.183 21.0488H52.1043L51.5204 22.4405H48.9412C48.4482 22.4405 48.2964 22.7017 48.2964 22.9512C48.2964 23.2076 48.484 23.4903 48.8606 23.4903H50.3114C51.6534 23.4903 52.2357 24.259 52.2357 25.2655C52.2357 26.3477 51.5868 27.234 50.2383 27.234H46.9746Z" fill="white"/>
</g>
</svg>
