<svg width="57" height="39" viewBox="0 0 57 39" fill="none" xmlns="http://www.w3.org/2000/svg">
<rect x="0.5" y="0.5" width="56" height="38" rx="2.5" fill="white" stroke="#D9D9D9"/>
<path d="M46.2793 20.1607L36.8506 18.6673L38.1005 24.3462L46.2793 20.1607Z" fill="#D12053"/>
<path d="M46.2794 20.161L39.1745 10.1832L36.8524 18.6693L46.2794 20.161Z" fill="#E2136E"/>
<path d="M36.6319 18.554L29.1874 8.9375L38.9362 10.1146L36.6319 18.554Z" fill="#D12053"/>
<path d="M33.2414 14.5358L29.1075 10.5982H30.1957L33.2414 14.5358Z" fill="#9E1638"/>
<path d="M48.2903 15.3102L46.5408 20.1067L43.7048 16.1422L48.2903 15.3102Z" fill="#D12053"/>
<path d="M39.2012 24.0589L46.0661 21.2715L46.3541 20.3855L39.2012 24.0589Z" fill="#E2136E"/>
<path d="M33.7108 29.3193L36.6516 18.8922L38.1433 25.6764L33.7108 29.3193Z" fill="#9E1638"/>
<path d="M48.5642 15.3482L47.8423 17.3287L50.4453 17.2856L48.5642 15.3482Z" fill="#E2136E"/>
<path d="M6.51428 16.1425C6.64052 16.1533 6.76854 16.1766 6.90367 16.1766C7.03879 16.1766 7.14903 16.1533 7.29305 16.1425V20.3604C7.70377 19.6541 8.22117 19.1886 8.98215 19.1886C10.3583 19.1886 10.9486 20.5653 10.9486 21.8305C10.9486 23.3454 10.1485 24.7957 8.74568 24.7957C8.46481 24.802 8.18761 24.7304 7.94409 24.5888C7.70057 24.4472 7.50003 24.241 7.36417 23.9924C7.12947 24.2009 6.92145 24.4507 6.69919 24.6771H6.52139L6.51428 16.1425ZM7.27527 22.3462C7.27527 23.5755 7.79089 24.4327 8.639 24.4327C9.73958 24.4327 10.0934 22.9375 10.0934 21.8772C10.0934 20.6461 9.69158 19.6775 8.73857 19.6667C7.62554 19.6577 7.27527 20.9894 7.27527 22.348" fill="#E2136E"/>
<path d="M14.5385 18.8706L13.71 19.9489C14.4888 21.099 15.296 22.2258 16.0783 23.3904L16.8677 24.6484V24.7113C16.6739 24.6987 16.4979 24.6736 16.3343 24.6736C16.1707 24.6736 15.9645 24.6987 15.7903 24.7113C15.5751 24.3087 15.3618 23.9367 15.1182 23.5719L12.9846 20.382C12.9366 20.3317 12.821 20.2921 12.821 20.3442V24.7113C12.6645 24.6987 12.5276 24.6736 12.3925 24.6736C12.2574 24.6736 12.1009 24.6987 11.964 24.7113V16.1425C12.1009 16.1533 12.2485 16.1803 12.3925 16.1803C12.5365 16.1803 12.6645 16.1533 12.821 16.1425V20.01C12.821 20.0854 12.9668 20.0351 13.0628 19.9345C13.248 19.7404 13.4214 19.5352 13.582 19.3199L15.9805 16.1389C16.1067 16.1497 16.233 16.1767 16.3699 16.1767C16.5068 16.1767 16.6117 16.1497 16.7504 16.1389L14.5385 18.8706Z" fill="#231F20"/>
<path d="M20.9909 23.7461C20.9909 24.1918 20.9624 24.4183 21.5367 24.2709V24.5207C21.4429 24.5682 21.3446 24.6061 21.2433 24.6339C20.7366 24.7364 20.317 24.6447 20.2388 23.9744L20.1516 24.0732C19.9822 24.2976 19.7637 24.4792 19.5133 24.6039C19.2628 24.7287 18.9871 24.7931 18.7079 24.7921C18.018 24.7921 17.4135 24.2421 17.4135 23.3993C17.4135 22.0999 18.3025 21.9292 19.2146 21.7585C19.9863 21.6111 20.2494 21.5428 20.2494 20.9947C20.2494 20.15 19.8405 19.6612 19.1097 19.6612C18.8602 19.6563 18.6151 19.729 18.4078 19.8694C18.2004 20.0099 18.0408 20.2114 17.9505 20.4466H17.8438V19.814C18.2825 19.4281 18.8396 19.2072 19.4209 19.1886C20.4432 19.1886 20.9997 19.814 20.9997 21.1025L20.9909 23.7461ZM20.2121 21.8645L19.8689 21.9436C19.2057 22.091 18.2118 22.2042 18.2118 23.2447C18.2118 23.9636 18.5674 24.323 19.1648 24.323C19.4739 24.2845 19.7565 24.1276 19.9543 23.8845C20.0254 23.8018 20.221 23.6077 20.221 23.5251L20.2121 21.8645Z" fill="#231F20"/>
<path d="M22.728 23.5951C22.9592 24.0426 23.3894 24.4433 23.8482 24.4433C24.1099 24.4298 24.3562 24.3138 24.5347 24.1199C24.7133 23.926 24.8101 23.6694 24.8047 23.4046C24.8047 21.8662 22.5022 22.8654 22.5022 20.8742C22.5022 19.7815 23.2134 19.1903 24.09 19.1903C24.4776 19.1816 24.8597 19.2837 25.1923 19.485C25.0963 19.7487 25.0191 20.0189 24.9612 20.2937H24.8723C24.7443 19.9181 24.4047 19.5407 24.0437 19.5407C23.5566 19.5407 23.1547 19.8732 23.1547 20.4896C23.1547 21.9471 25.4573 21.1707 25.4573 22.9948C25.4573 24.2151 24.522 24.792 23.6615 24.792C23.2305 24.7916 22.8086 24.6669 22.4453 24.4325C22.5326 24.1591 22.6009 23.8799 22.6498 23.5969L22.728 23.5951Z" fill="#231F20"/>
<path d="M26.7695 16.1425C26.8993 16.1533 27.0255 16.1766 27.1606 16.1766C27.2958 16.1766 27.406 16.1533 27.5518 16.1425V20.2921C27.8932 19.5966 28.4283 19.1886 29.1218 19.1886C30.2526 19.1886 30.6917 19.9722 30.6917 21.4099V24.7113C30.5442 24.6987 30.4304 24.6771 30.3006 24.6771C30.1708 24.6771 30.0374 24.7005 29.9094 24.7113V21.6705C29.9094 20.4125 29.6587 19.7781 28.8284 19.7781C27.9501 19.7781 27.5518 20.4179 27.5518 21.6022V24.7113C27.406 24.6987 27.2904 24.6771 27.1606 24.6771C27.0308 24.6771 26.901 24.7005 26.7695 24.7113V16.1425Z" fill="#231F20"/>
</svg>
