<svg width="52" height="37" viewBox="0 0 52 37" fill="none" xmlns="http://www.w3.org/2000/svg">
<rect y="0.75" width="52" height="36" rx="4" fill="white"/>
<path d="M40.8533 22.2285H40.8787L43.0476 16.7334H44.571L39.8865 27.75H38.4402L40.1824 23.8965L37.1082 16.7334H38.6326L40.8533 22.2285ZM33.5203 16.4834C34.5566 16.4834 35.3754 16.7691 35.9763 17.3311C36.5771 17.893 36.8728 18.678 36.8728 19.668V24.3867H35.532V23.3252H35.4714C34.888 24.1994 34.1207 24.6367 33.1541 24.6367C32.3356 24.6366 31.6391 24.3862 31.0906 23.8867C30.5508 23.4229 30.246 22.7361 30.2634 22.0137C30.2635 21.2201 30.5592 20.5957 31.1423 20.123C31.7257 19.6503 32.5099 19.418 33.4851 19.418C34.3211 19.418 35.0008 19.5786 35.5408 19.8818V19.5518C35.5407 19.0612 35.3313 18.5974 34.9656 18.2764C34.5911 17.9375 34.1123 17.75 33.616 17.75C32.8324 17.75 32.2143 18.089 31.7615 18.7666L30.5242 17.9727C31.186 16.9826 32.1879 16.4834 33.5203 16.4834ZM26.8757 13.2012C27.7726 13.1834 28.6434 13.5308 29.2791 14.1729C30.5504 15.3859 30.6292 17.429 29.4363 18.7402L29.2791 18.9004C28.6259 19.5337 27.8249 19.8554 26.8757 19.8555H24.5593V24.3867H23.157V13.2012H26.8757ZM33.7039 20.5781C33.1377 20.5781 32.6584 20.7205 32.2751 20.9971C31.9006 21.2736 31.7087 21.6217 31.7087 22.041C31.7088 22.4156 31.8833 22.7635 32.1707 22.9775C32.4842 23.2273 32.8676 23.3615 33.2595 23.3525C33.8516 23.3525 34.4177 23.1116 34.8357 22.6836C35.2972 22.2376 35.5329 21.711 35.533 21.1045C35.0975 20.7477 34.4876 20.5692 33.7039 20.5781ZM24.5593 18.4824H26.9109C27.4334 18.5003 27.9386 18.2858 28.2957 17.9023C29.0272 17.1263 29.0101 15.8773 28.2527 15.1279C27.8956 14.7711 27.4161 14.5742 26.9109 14.5742H24.5593V18.4824Z" fill="#3C4043"/>
<path d="M19.7186 18.8743C19.7186 18.4371 19.6837 18 19.6141 17.5718H13.7009V20.0429H17.0886C16.9492 20.8369 16.4964 21.5506 15.8345 21.9967V23.6025H17.8549C19.0393 22.4873 19.7186 20.8369 19.7186 18.8743Z" fill="#4285F4"/>
<path d="M13.7012 25.1545C15.3907 25.1545 16.8189 24.5836 17.8552 23.6022L15.8348 21.9964C15.2687 22.389 14.5459 22.612 13.7012 22.612C12.064 22.612 10.6793 21.479 10.1829 19.9624H8.10156V21.6217C9.16401 23.7896 11.3325 25.1545 13.7012 25.1545Z" fill="#34A853"/>
<path d="M10.1831 19.9628C9.92182 19.1688 9.92182 18.3034 10.1831 17.5005V15.8501H8.10144C7.20431 17.6611 7.20431 19.8022 8.10144 21.6132L10.1831 19.9628Z" fill="#FBBC04"/>
<path d="M13.7012 14.8515C14.5982 14.8337 15.4603 15.1816 16.1048 15.815L17.8987 13.9772C16.7579 12.8889 15.26 12.2911 13.7012 12.309C11.3325 12.309 9.16401 13.6828 8.10156 15.8507L10.1829 17.51C10.6793 15.9845 12.064 14.8515 13.7012 14.8515Z" fill="#EA4335"/>
</svg>
