<svg width="190" height="30" viewBox="0 0 190 30" fill="none" xmlns="http://www.w3.org/2000/svg">
<g clip-path="url(#clip0_443_260)">
<path d="M29.9587 16.1248H24.6002C19.9196 16.1248 16.1252 19.9192 16.1252 24.5998V29.9583C23.5127 29.4105 29.4109 23.5123 29.9587 16.1248Z" fill="#03140E"/>
<path d="M13.8752 29.9583V24.5998C13.8752 19.9192 10.0808 16.1248 5.4002 16.1248H0.041748C0.589499 23.5123 6.48777 29.4105 13.8752 29.9583Z" fill="#03140E"/>
<path d="M29.9587 13.8748C29.4109 6.4874 23.5127 0.589132 16.1252 0.0413818V5.39983C16.1252 10.0805 19.9196 13.8748 24.6002 13.8748H29.9587Z" fill="#03140E"/>
<path d="M13.8752 0.0413818C6.48777 0.589132 0.589499 6.4874 0.041748 13.8748H5.4002C10.0808 13.8748 13.8752 10.0805 13.8752 5.39983V0.0413818Z" fill="#03140E"/>
<path d="M10.1873 14.9999C12.2666 13.9609 13.9613 12.2663 15.0002 10.1869C16.0391 12.2663 17.7337 13.9609 19.8131 14.9999C17.7337 16.0388 16.0391 17.7334 15.0002 19.8128C13.9613 17.7334 12.2666 16.0388 10.1873 14.9999Z" fill="#007B54"/>
</g>
<path d="M55.4304 7.45455V22H52.7741L46.446 12.8452H46.3395V22H43.2642V7.45455H45.9631L52.2415 16.6023H52.3693V7.45455H55.4304ZM62.886 22.2131C61.7638 22.2131 60.7979 21.9858 59.9883 21.5312C59.1834 21.072 58.5631 20.4233 58.1275 19.5852C57.6919 18.7424 57.4741 17.7457 57.4741 16.5952C57.4741 15.473 57.6919 14.4882 58.1275 13.6406C58.5631 12.7931 59.1763 12.1326 59.967 11.6591C60.7624 11.1856 61.6952 10.9489 62.7653 10.9489C63.485 10.9489 64.1549 11.0649 64.7752 11.2969C65.4002 11.5241 65.9447 11.8674 66.4087 12.3267C66.8775 12.786 67.2421 13.3636 67.5025 14.0597C67.7629 14.7509 67.8931 15.5606 67.8931 16.4886V17.3196H58.6815V15.4446H65.0451C65.0451 15.009 64.9504 14.6231 64.761 14.2869C64.5716 13.9508 64.3088 13.688 63.9727 13.4986C63.6412 13.3045 63.2553 13.2074 62.815 13.2074C62.3557 13.2074 61.9485 13.3139 61.5934 13.527C61.243 13.7353 60.9684 14.017 60.7695 14.3722C60.5707 14.7225 60.4689 15.1132 60.4641 15.544V17.3267C60.4641 17.8665 60.5636 18.3329 60.7624 18.7259C60.966 19.1188 61.2525 19.4219 61.6218 19.6349C61.9911 19.848 62.4291 19.9545 62.9357 19.9545C63.2719 19.9545 63.5797 19.9072 63.859 19.8125C64.1384 19.7178 64.3775 19.5758 64.5763 19.3864C64.7752 19.197 64.9267 18.965 65.0309 18.6903L67.8292 18.875C67.6871 19.5473 67.396 20.1345 66.9556 20.6364C66.52 21.1335 65.9566 21.5218 65.2653 21.8011C64.5787 22.0758 63.7856 22.2131 62.886 22.2131ZM72.2006 11.0909L74.2035 14.9048L76.256 11.0909H79.3597L76.1992 16.5455L79.445 22H76.3555L74.2035 18.2287L72.087 22H68.962L72.2006 16.5455L69.0756 11.0909H72.2006ZM86.9592 11.0909V13.3636H80.3896V11.0909H86.9592ZM81.881 8.47727H84.9066V18.6477C84.9066 18.9271 84.9492 19.1449 85.0344 19.3011C85.1197 19.4527 85.238 19.5592 85.3896 19.6207C85.5458 19.6823 85.7257 19.7131 85.9293 19.7131C86.0714 19.7131 86.2134 19.7012 86.3555 19.6776C86.4975 19.6491 86.6064 19.6278 86.6822 19.6136L87.158 21.8651C87.0065 21.9124 86.7934 21.9669 86.5188 22.0284C86.2442 22.0947 85.9104 22.1349 85.5174 22.1491C84.7882 22.1776 84.149 22.0805 83.5998 21.858C83.0553 21.6354 82.6315 21.2898 82.3285 20.821C82.0254 20.3523 81.8763 19.7604 81.881 19.0455V8.47727Z" fill="#03140E"/>
<path d="M101.047 12H99.7113C99.6119 11.5028 99.4319 11.0436 99.1715 10.6222C98.9158 10.196 98.5939 9.82434 98.2056 9.5071C97.8174 9.18987 97.377 8.94366 96.8846 8.76847C96.3922 8.59328 95.8595 8.50568 95.2866 8.50568C94.368 8.50568 93.5299 8.74479 92.7724 9.22301C92.0195 9.70123 91.4158 10.4044 90.9613 11.3324C90.5115 12.2557 90.2866 13.3873 90.2866 14.7273C90.2866 16.0767 90.5115 17.2131 90.9613 18.1364C91.4158 19.0597 92.0195 19.7604 92.7724 20.2386C93.5299 20.7121 94.368 20.9489 95.2866 20.9489C95.8595 20.9489 96.3922 20.8613 96.8846 20.6861C97.377 20.5109 97.8174 20.267 98.2056 19.9545C98.5939 19.6373 98.9158 19.2656 99.1715 18.8395C99.4319 18.4134 99.6119 17.9517 99.7113 17.4545H101.047C100.928 18.1222 100.706 18.7448 100.379 19.3224C100.057 19.8954 99.645 20.3973 99.1431 20.8281C98.646 21.259 98.073 21.5952 97.4244 21.8366C96.7757 22.0781 96.0631 22.1989 95.2866 22.1989C94.065 22.1989 92.9807 21.8935 92.0337 21.2827C91.0868 20.6671 90.3434 19.8007 89.8036 18.6832C89.2686 17.5658 89.0011 16.2472 89.0011 14.7273C89.0011 13.2074 89.2686 11.8887 89.8036 10.7713C90.3434 9.65388 91.0868 8.78977 92.0337 8.17898C92.9807 7.56345 94.065 7.25568 95.2866 7.25568C96.0631 7.25568 96.7757 7.37642 97.4244 7.6179C98.073 7.85464 98.646 8.19081 99.1431 8.62642C99.645 9.05729 100.057 9.55919 100.379 10.1321C100.706 10.705 100.928 11.3277 101.047 12ZM108.143 22.2273C107.201 22.2273 106.368 21.9882 105.643 21.5099C104.924 21.0317 104.36 20.3712 103.953 19.5284C103.546 18.6809 103.342 17.7031 103.342 16.5952C103.342 15.4777 103.546 14.4953 103.953 13.6477C104.36 12.7955 104.924 12.1326 105.643 11.6591C106.368 11.1809 107.201 10.9418 108.143 10.9418C109.086 10.9418 109.917 11.1809 110.636 11.6591C111.356 12.1373 111.92 12.8002 112.327 13.6477C112.739 14.4953 112.945 15.4777 112.945 16.5952C112.945 17.7031 112.741 18.6809 112.334 19.5284C111.927 20.3712 111.361 21.0317 110.636 21.5099C109.917 21.9882 109.086 22.2273 108.143 22.2273ZM108.143 21.0696C108.901 21.0696 109.543 20.866 110.068 20.4588C110.594 20.0516 110.991 19.5095 111.261 18.8324C111.536 18.1553 111.673 17.4096 111.673 16.5952C111.673 15.7808 111.536 15.0327 111.261 14.3509C110.991 13.669 110.594 13.1222 110.068 12.7102C109.543 12.2983 108.901 12.0923 108.143 12.0923C107.391 12.0923 106.749 12.2983 106.219 12.7102C105.693 13.1222 105.293 13.669 105.018 14.3509C104.749 15.0327 104.614 15.7808 104.614 16.5952C104.614 17.4096 104.749 18.1553 105.018 18.8324C105.293 19.5095 105.693 20.0516 106.219 20.4588C106.744 20.866 107.386 21.0696 108.143 21.0696ZM115.72 22V11.0909H116.949V12.767H117.062C117.28 12.2036 117.642 11.7609 118.149 11.4389C118.66 11.1122 119.273 10.9489 119.988 10.9489C120.741 10.9489 121.359 11.1264 121.842 11.4815C122.33 11.8319 122.694 12.3149 122.936 12.9304H123.028C123.274 12.3243 123.674 11.8437 124.228 11.4886C124.787 11.1288 125.464 10.9489 126.26 10.9489C127.273 10.9489 128.073 11.2685 128.66 11.9077C129.247 12.5421 129.541 13.4702 129.541 14.6918V22H128.277V14.6918C128.277 13.83 128.056 13.1837 127.616 12.7528C127.176 12.322 126.596 12.1065 125.876 12.1065C125.043 12.1065 124.401 12.3622 123.951 12.8736C123.502 13.3849 123.277 14.0336 123.277 14.8196V22H121.984V14.5781C121.984 13.8395 121.778 13.2429 121.366 12.7884C120.954 12.3338 120.374 12.1065 119.626 12.1065C119.124 12.1065 118.672 12.2296 118.27 12.4759C117.872 12.7221 117.557 13.0653 117.325 13.5057C117.098 13.9413 116.984 14.4432 116.984 15.0114V22H115.72ZM132.888 22V11.0909H134.116V12.767H134.23C134.448 12.2036 134.81 11.7609 135.317 11.4389C135.828 11.1122 136.441 10.9489 137.156 10.9489C137.909 10.9489 138.527 11.1264 139.01 11.4815C139.498 11.8319 139.862 12.3149 140.104 12.9304H140.196C140.442 12.3243 140.842 11.8437 141.396 11.4886C141.955 11.1288 142.632 10.9489 143.428 10.9489C144.441 10.9489 145.241 11.2685 145.828 11.9077C146.415 12.5421 146.709 13.4702 146.709 14.6918V22H145.445V14.6918C145.445 13.83 145.224 13.1837 144.784 12.7528C144.344 12.322 143.764 12.1065 143.044 12.1065C142.211 12.1065 141.569 12.3622 141.119 12.8736C140.67 13.3849 140.445 14.0336 140.445 14.8196V22H139.152V14.5781C139.152 13.8395 138.946 13.2429 138.534 12.7884C138.122 12.3338 137.542 12.1065 136.794 12.1065C136.292 12.1065 135.84 12.2296 135.438 12.4759C135.04 12.7221 134.725 13.0653 134.493 13.5057C134.266 13.9413 134.152 14.4432 134.152 15.0114V22H132.888ZM154.466 22.2273C153.448 22.2273 152.568 21.9905 151.824 21.517C151.081 21.0388 150.506 20.3783 150.098 19.5355C149.696 18.688 149.495 17.7126 149.495 16.6094C149.495 15.5109 149.696 14.5355 150.098 13.6832C150.506 12.8262 151.067 12.1562 151.782 11.6733C152.501 11.1856 153.332 10.9418 154.275 10.9418C154.866 10.9418 155.437 11.0507 155.986 11.2685C156.535 11.4815 157.028 11.8106 157.463 12.2557C157.904 12.696 158.252 13.2524 158.507 13.9247C158.763 14.5923 158.891 15.383 158.891 16.2969V16.9219H150.368V15.8068H157.598C157.598 15.1061 157.456 14.4763 157.172 13.9176C156.893 13.3542 156.502 12.9091 156 12.5824C155.503 12.2557 154.928 12.0923 154.275 12.0923C153.583 12.0923 152.975 12.277 152.449 12.6463C151.924 13.0156 151.512 13.5033 151.213 14.1094C150.92 14.7154 150.771 15.3783 150.766 16.098V16.7656C150.766 17.6321 150.915 18.3897 151.213 19.0384C151.516 19.6823 151.945 20.1818 152.499 20.5369C153.053 20.892 153.709 21.0696 154.466 21.0696C154.982 21.0696 155.435 20.9891 155.823 20.8281C156.216 20.6671 156.545 20.4517 156.81 20.1818C157.08 19.9072 157.283 19.6065 157.421 19.2798L158.621 19.6705C158.455 20.1297 158.183 20.5535 157.804 20.9418C157.43 21.33 156.962 21.6425 156.398 21.8793C155.839 22.1113 155.195 22.2273 154.466 22.2273ZM161.677 22V11.0909H162.906V12.767H162.998C163.216 12.2178 163.594 11.7751 164.134 11.4389C164.679 11.098 165.294 10.9276 165.981 10.9276C166.085 10.9276 166.201 10.9299 166.329 10.9347C166.457 10.9394 166.563 10.9441 166.648 10.9489V12.2344C166.592 12.2249 166.492 12.2107 166.35 12.1918C166.208 12.1728 166.054 12.1634 165.888 12.1634C165.32 12.1634 164.814 12.2841 164.369 12.5256C163.928 12.7623 163.58 13.0914 163.325 13.5128C163.069 13.9342 162.941 14.4148 162.941 14.9545V22H161.677ZM172.735 22.2273C171.76 22.2273 170.91 21.9834 170.185 21.4957C169.466 21.008 168.907 20.3404 168.509 19.4929C168.112 18.6454 167.913 17.6795 167.913 16.5952C167.913 15.5014 168.114 14.5284 168.516 13.6761C168.924 12.8239 169.487 12.1562 170.207 11.6733C170.926 11.1856 171.762 10.9418 172.714 10.9418C173.443 10.9418 174.103 11.0838 174.695 11.3679C175.287 11.6473 175.775 12.0426 176.158 12.554C176.547 13.0606 176.79 13.6525 176.89 14.3295H175.612C175.479 13.714 175.159 13.1884 174.653 12.7528C174.151 12.3125 173.512 12.0923 172.735 12.0923C172.039 12.0923 171.424 12.2817 170.888 12.6605C170.353 13.0346 169.934 13.5578 169.631 14.2301C169.333 14.8977 169.184 15.6719 169.184 16.5526C169.184 17.438 169.331 18.2216 169.624 18.9034C169.918 19.5805 170.33 20.1108 170.86 20.4943C171.395 20.8778 172.02 21.0696 172.735 21.0696C173.218 21.0696 173.658 20.9796 174.056 20.7997C174.459 20.6151 174.795 20.3546 175.065 20.0185C175.339 19.6823 175.524 19.2822 175.619 18.8182H176.897C176.802 19.4763 176.568 20.0634 176.194 20.5795C175.825 21.0909 175.344 21.4934 174.752 21.7869C174.165 22.0805 173.493 22.2273 172.735 22.2273ZM184.017 22.2273C182.999 22.2273 182.118 21.9905 181.375 21.517C180.632 21.0388 180.056 20.3783 179.649 19.5355C179.247 18.688 179.045 17.7126 179.045 16.6094C179.045 15.5109 179.247 14.5355 179.649 13.6832C180.056 12.8262 180.617 12.1562 181.332 11.6733C182.052 11.1856 182.883 10.9418 183.825 10.9418C184.417 10.9418 184.988 11.0507 185.537 11.2685C186.086 11.4815 186.579 11.8106 187.014 12.2557C187.455 12.696 187.803 13.2524 188.058 13.9247C188.314 14.5923 188.442 15.383 188.442 16.2969V16.9219H179.919V15.8068H187.149C187.149 15.1061 187.007 14.4763 186.723 13.9176C186.444 13.3542 186.053 12.9091 185.551 12.5824C185.054 12.2557 184.479 12.0923 183.825 12.0923C183.134 12.0923 182.526 12.277 182 12.6463C181.474 13.0156 181.063 13.5033 180.764 14.1094C180.471 14.7154 180.321 15.3783 180.317 16.098V16.7656C180.317 17.6321 180.466 18.3897 180.764 19.0384C181.067 19.6823 181.496 20.1818 182.05 20.5369C182.604 20.892 183.259 21.0696 184.017 21.0696C184.533 21.0696 184.985 20.9891 185.374 20.8281C185.767 20.6671 186.096 20.4517 186.361 20.1818C186.631 19.9072 186.834 19.6065 186.972 19.2798L188.172 19.6705C188.006 20.1297 187.734 20.5535 187.355 20.9418C186.981 21.33 186.512 21.6425 185.949 21.8793C185.39 22.1113 184.746 22.2273 184.017 22.2273Z" fill="#007B54"/>
<defs>
<clipPath id="clip0_443_260">
<rect width="30" height="30" fill="white"/>
</clipPath>
</defs>
</svg>
