<svg width="56" height="39" viewBox="0 0 56 39" fill="none" xmlns="http://www.w3.org/2000/svg">
<rect x="0.5" y="0.5" width="55" height="38" rx="2.5" fill="white" stroke="#D9D9D9"/>
<path d="M35.4821 8.125C41.5119 8.12504 46.4 13.1476 46.4 19.3428C46.3998 25.5377 41.5117 30.5595 35.4821 30.5596C32.7787 30.5596 30.3068 29.548 28.4 27.876C26.4932 29.548 24.0213 30.5596 21.318 30.5596C15.2883 30.5595 10.4002 25.5377 10.4 19.3428C10.4 13.1476 15.2882 8.12504 21.318 8.125C24.0211 8.125 26.4933 9.1359 28.4 10.8076C30.3067 9.1359 32.779 8.125 35.4821 8.125Z" fill="#ED0006"/>
<path d="M35.4821 8.125C41.5119 8.12504 46.4 13.1476 46.4 19.3428C46.3998 25.5377 41.5117 30.5595 35.4821 30.5596C32.7787 30.5596 30.3068 29.548 28.4 27.876C30.7463 25.8186 32.2358 22.7603 32.236 19.3428C32.236 15.9248 30.7467 12.8651 28.4 10.8076C30.3067 9.1359 32.779 8.125 35.4821 8.125Z" fill="#F9A000"/>
<path d="M28.4 10.8086C30.7464 12.8661 32.2359 15.9251 32.2359 19.3428C32.2358 22.7601 30.746 25.8177 28.4 27.875C26.054 25.8177 24.5642 22.7601 24.564 19.3428C24.564 15.9251 26.0536 12.8661 28.4 10.8086Z" fill="#FF5E00"/>
</svg>
