<svg width="55" height="39" viewBox="0 0 55 39" fill="none" xmlns="http://www.w3.org/2000/svg">
<rect x="0.5" y="0.5" width="54" height="38" rx="2.5" fill="white" stroke="#D9D9D9"/>
<path d="M33.2051 17.4839H26.3414C26.2055 17.4839 26.1376 17.5898 26.1376 17.6957V18.2607C26.1376 18.402 26.2395 18.4726 26.3414 18.4726H31.4722V21.4389C31.3363 21.227 31.1664 21.0151 30.9965 20.8032C30.3849 20.1676 29.7393 19.8498 29.0597 19.8498C28.5161 19.8498 28.0743 20.1323 27.7006 20.6267C27.3948 21.0504 27.2249 21.5448 27.2249 22.0039C27.2249 22.4629 27.2928 23.0633 27.6326 23.6283C28.0404 24.2992 28.7199 24.5111 29.3316 24.5111C30.1131 24.5111 30.7586 23.9461 30.7586 23.2045C30.7586 22.7808 30.5548 22.4276 30.181 22.1804L29.8073 21.9686V22.6042C29.7733 22.7808 29.5014 23.0279 29.1956 23.0279C28.9238 23.0279 28.686 22.922 28.5161 22.7454C28.4141 22.6395 28.3462 22.4276 28.3802 22.2864C28.3802 22.0745 28.4481 21.8979 28.584 21.7214C28.7539 21.5095 28.9238 21.4036 29.1956 21.4036C29.8752 21.4036 30.4528 21.7214 30.9285 22.4276C31.3023 23.0279 31.5062 23.5929 31.5062 24.2286V25.7117L32.5255 26.3473C32.5595 26.3826 32.5935 26.3826 32.6275 26.3826C32.7634 26.3826 32.8313 26.2767 32.8313 26.1708V18.5079H33.2391C33.375 18.5079 33.443 18.402 33.443 18.2961V17.7311C33.443 17.5898 33.341 17.4839 33.2051 17.4839Z" fill="#ED1C24"/>
<path d="M46.9325 17.4838H38.234C38.0981 17.4838 38.0301 17.5898 38.0301 17.6957V18.6845C37.1807 17.7663 36.4331 17.3073 35.7536 17.3073C35.108 17.3073 34.5643 17.4485 34.0886 17.837C33.6469 18.1901 33.3751 18.6492 33.3751 19.1788C33.3751 20.7679 35.074 20.7326 35.5157 20.5207C35.5837 20.4854 35.6856 20.4148 35.7875 20.4148C36.1273 20.4148 36.2632 20.6973 36.2632 20.9445C36.2632 21.2976 35.7536 21.6154 35.1419 21.6154C34.8022 21.6154 34.5983 21.5095 34.4624 21.2976L34.1905 20.8738L34.0207 21.3682C33.9867 21.4742 33.9187 21.6154 33.9187 21.792C33.9187 22.1451 34.0886 22.4982 34.4284 22.816C34.7342 23.0985 35.108 23.2398 35.5157 23.2398C36.1613 23.2398 36.705 22.9926 37.0447 22.4982C37.3505 22.1098 37.4865 21.6507 37.4865 21.121C37.4865 20.8385 37.3845 20.5207 37.1467 20.1676C36.8748 19.7438 36.5351 19.532 36.1613 19.532C36.0254 19.532 35.8555 19.5673 35.6856 19.6379C35.6176 19.6732 35.4817 19.7085 35.4477 19.7085C35.3798 19.7085 35.2779 19.6732 35.2099 19.5673C35.1419 19.4967 35.074 19.3907 35.074 19.2142C35.074 18.8257 35.4138 18.4373 36.0254 18.4373H36.0594C36.4671 18.4373 36.8748 18.6492 37.2486 19.0376C37.5544 19.3554 37.7923 19.6732 37.9961 20.0263V25.641L39.0155 26.2767C39.0495 26.312 39.0834 26.312 39.1174 26.312C39.2533 26.312 39.3213 26.206 39.3213 26.1001V18.5079H40.8843V23.4163L42.1075 23.946H42.1755C42.2774 23.946 42.3794 23.8754 42.3794 23.7342V23.6988C42.5832 22.251 43.1948 21.2623 44.2142 20.662V20.9445C44.2142 21.1563 44.2142 21.686 44.2482 21.9685C44.2482 22.1451 44.2482 22.251 44.2822 22.357C44.2822 22.922 44.3501 23.7695 44.52 24.4051C44.8598 25.6057 45.4374 25.8882 45.8452 25.8882H45.8791C46.117 25.8882 46.3209 25.8176 46.4568 25.6764C46.5247 25.6057 46.6267 25.4645 46.6267 25.2173C46.6267 25.0054 46.5927 24.8288 46.5247 24.6876L46.4228 24.511L46.2189 24.5464C46.0151 24.617 45.9131 24.617 45.9131 24.5817H45.8791C45.8112 24.5817 45.8112 24.5817 45.7772 24.5464C45.7093 24.511 45.5733 24.4051 45.4714 24.0167C45.4034 23.7342 45.3695 23.3457 45.3695 23.1338C45.3695 21.5448 45.6753 20.3442 46.185 20.097H46.2189C46.2869 20.0617 46.3548 19.991 46.3548 19.8851C46.3548 19.8498 46.3548 19.8145 46.3209 19.7792V19.7438C46.083 19.2495 45.5733 18.8963 44.8938 18.7198H44.7579C44.2142 18.8257 43.5686 19.2142 42.7531 19.9204C42.5493 20.097 42.3454 20.2735 42.1755 20.4501V18.5079H46.9325C47.0684 18.5079 47.1363 18.402 47.1363 18.296V17.731C47.1703 17.5898 47.0684 17.4838 46.9325 17.4838Z" fill="#ED1C24"/>
<path d="M23.895 20.097C23.895 20.3441 23.895 20.556 23.861 20.7679C23.793 21.7566 23.5552 22.6748 23.1814 23.5223C23.0455 23.8754 22.8756 24.1932 22.6717 24.511C21.2446 26.8416 18.7302 28.3954 15.876 28.3954C14.6528 28.3954 13.4975 28.1129 12.4782 27.6185C9.75991 26.312 7.85712 23.4163 7.85712 20.097C7.85712 16.8129 9.69196 13.9879 12.3083 12.646C12.1044 12.9285 11.9006 13.211 11.7307 13.5288C11.7307 13.5641 11.6967 13.5641 11.6967 13.5994C11.5948 13.7054 11.4928 13.776 11.3909 13.8819C11.255 13.9879 11.153 14.1291 11.0171 14.2351L10.9492 14.3057L10.8812 14.3763C10.8472 14.4116 10.8132 14.4823 10.7453 14.5176C10.6773 14.6235 10.5754 14.7295 10.5074 14.8354C10.1677 15.2945 9.89583 15.7888 9.69195 16.3185C9.65798 16.3538 9.65798 16.4245 9.624 16.4598C9.59002 16.5304 9.59002 16.601 9.55604 16.6363C9.55604 16.6716 9.52206 16.707 9.52206 16.7423C9.48808 16.8482 9.45411 16.9188 9.42013 17.0248C9.38615 17.0954 9.38615 17.166 9.35217 17.2013C9.35217 17.2366 9.31819 17.272 9.31819 17.3073C9.31819 17.3779 9.28421 17.4485 9.28421 17.5191L9.18228 18.1548C9.18228 18.2254 9.18228 18.2607 9.1483 18.3313V19.1788C9.1483 21.4388 10.1337 23.487 11.7307 24.7935C12.9539 25.8176 14.4829 26.4532 16.1479 26.4532C17.6769 26.4532 19.07 25.9588 20.2253 25.076C21.0747 24.4404 21.7543 23.6282 22.264 22.6748C22.332 22.5335 22.3999 22.4276 22.4679 22.2863C22.8756 21.4035 23.1135 20.4501 23.1135 19.426V19.1788C23.1135 18.9316 23.1135 18.7198 23.0795 18.4726L23.1135 18.5079C23.2154 18.6138 23.3173 18.6845 23.4193 18.7904C23.5212 18.6138 23.6231 18.4726 23.7251 18.296C23.793 18.6138 23.827 18.9316 23.861 19.2848C23.895 19.6026 23.895 19.8498 23.895 20.097Z" fill="#ED1C24"/>
<path d="M16.8276 13.4228L15.3326 10.5625C12.8521 11.7278 11.1532 14.3056 11.1532 17.3072C11.1532 18.8256 11.5949 20.2381 12.3424 21.4034C12.2745 21.015 12.2745 20.6266 12.2745 20.2028C12.3085 17.1306 14.1773 14.5175 16.8276 13.4228Z" fill="#F7941D"/>
<path d="M18.0166 14.8354C18.6282 14.6588 19.3078 14.5882 19.9534 14.5882C20.3611 14.5882 20.8028 14.6235 21.1766 14.6942L21.1426 13.4229L21.0747 10.8804C20.8029 10.8451 20.497 10.8098 20.1912 10.8098C18.8321 10.8098 17.5749 11.2688 16.5555 12.0104L17.371 13.5642C15.9099 14.0938 14.7207 15.1532 13.9732 16.5304C13.5994 17.2014 13.3276 17.9782 13.2256 18.7904C13.4295 18.3667 13.6674 17.9782 13.9392 17.6251C14.9246 16.2832 16.3517 15.2592 18.0166 14.8354Z" fill="#ED1C24"/>
<path d="M21.5845 13.3875L21.6524 15.1885C21.0748 15.0119 20.4972 14.906 19.8516 14.906C18.6623 14.906 17.541 15.2591 16.5557 15.8594C15.3324 16.6363 14.381 17.8722 13.9053 19.32C14.381 18.6491 14.9587 18.0488 15.6382 17.5897C16.6236 16.9188 17.8129 16.5304 19.0701 16.5304C20.0215 16.5304 20.9049 16.7422 21.7204 17.1307C22.332 17.4132 22.8757 17.8016 23.3514 18.296L24.3028 16.8129L25.526 14.8707C24.4387 13.9525 23.0795 13.3875 21.5845 13.3875Z" fill="#F7941D"/>
<path d="M23.1135 19.2494V19.4966C23.1135 20.9797 22.5358 22.2156 22.4679 22.3569C22.3999 22.4981 22.332 22.6041 22.264 22.7453C21.7543 23.6988 21.0748 24.511 20.2253 25.1466C19.07 25.9941 17.6769 26.5238 16.1479 26.5238C14.4829 26.5238 12.9199 25.9235 11.7307 24.8641C10.1677 23.5222 9.14832 21.5094 9.14832 19.2494V18.4019C9.14832 18.3313 9.14832 18.296 9.18229 18.2253L9.28423 17.5897C9.28423 17.5191 9.31821 17.4485 9.31821 17.3778C9.31821 17.3425 9.35219 17.3072 9.35219 17.2719C9.38616 17.2013 9.38616 17.1306 9.42014 17.0953C9.45412 16.9894 9.4881 16.8835 9.52208 16.8128C9.52208 16.7775 9.55606 16.7422 9.55606 16.7069C9.59004 16.6363 9.59004 16.5656 9.62401 16.5303C9.65799 16.495 9.65799 16.4244 9.69197 16.3891C9.89584 15.8594 10.2016 15.365 10.5075 14.906C10.5754 14.8 10.6773 14.6941 10.7453 14.5881C10.7793 14.5528 10.8133 14.4822 10.8812 14.4469C10.9152 14.4116 10.9152 14.3763 10.9492 14.3763C10.9832 14.341 10.9832 14.3056 11.0171 14.3056C11.1191 14.1644 11.255 14.0585 11.3909 13.9525C11.4928 13.8466 11.5948 13.776 11.6967 13.67C11.6967 13.7053 11.6627 13.7053 11.6627 13.7406C11.6627 13.776 11.6287 13.8113 11.6287 13.8113C11.221 14.6588 10.9492 15.6828 10.8472 16.7422C10.8133 17.0247 10.8133 17.3072 10.8133 17.625C10.8133 21.4388 12.9539 24.511 15.6042 24.511H15.8761C16.2498 24.511 16.6236 24.4403 16.9973 24.3697C18.7982 23.8753 20.1234 22.145 20.1234 20.1322V20.0263C20.0894 18.8256 19.6137 17.731 18.8322 16.9894C19.3758 16.9894 19.9195 17.0953 20.4292 17.2366C21.4145 17.4838 22.298 17.9781 23.0795 18.6138L23.1135 18.6491C23.0795 18.7903 23.1135 19.0375 23.1135 19.2494Z" fill="#F7941D"/>
<path d="M23.1133 19.2497V19.4968C23.1133 21.0506 22.4337 22.3925 22.4337 22.3925C22.3658 22.5337 22.2978 22.6397 22.2298 22.7809C21.7202 23.7343 21.0066 24.5465 20.1572 25.1822C18.9679 26.1003 17.5408 26.5593 16.0458 26.5593C14.4148 26.5593 12.8518 25.959 11.5946 24.8997C9.9636 23.5225 9.01221 21.439 9.01221 19.2497C9.01221 17.0603 9.9636 14.9768 11.5946 13.5996L11.6625 13.529C11.6625 13.5643 11.6286 13.5643 11.6286 13.5996C11.6286 13.635 11.5946 13.635 11.5946 13.6703C9.99758 15.0475 9.08016 17.0603 9.08016 19.2497C9.08016 21.439 9.99758 23.4518 11.6286 24.8643C12.8518 25.9237 14.4488 26.4887 16.0458 26.4887C17.5068 26.4887 18.9339 26.0297 20.1232 25.1115C20.9726 24.4759 21.6522 23.6637 22.1619 22.7103C22.2298 22.569 22.2978 22.4631 22.3318 22.3218C22.3318 22.3218 23.0113 21.0153 23.0113 19.4615V19.2143C23.0113 18.9672 23.0113 18.7553 22.9774 18.5081V18.4728L23.0113 18.5081L23.0453 18.5434C23.1133 18.8259 23.1133 19.0378 23.1133 19.2497Z" fill="#F7941D"/>
</svg>
