<svg width="52" height="37" viewBox="0 0 52 37" fill="none" xmlns="http://www.w3.org/2000/svg">
<rect y="0.75" width="52" height="36" rx="4" fill="white"/>
<path fill-rule="evenodd" clip-rule="evenodd" d="M13.5552 14.3457H11.008C10.8337 14.3457 10.6854 14.4736 10.6582 14.6473L9.62804 21.2418C9.60756 21.372 9.70738 21.4893 9.83811 21.4893H11.0542C11.2285 21.4893 11.3767 21.3614 11.4039 21.1873L11.6818 19.4087C11.7086 19.2345 11.8572 19.1068 12.0311 19.1068H12.8375C14.5154 19.1068 15.4837 18.287 15.7367 16.6626C15.8506 15.9519 15.7415 15.3935 15.4118 15.0023C15.0499 14.573 14.4077 14.3457 13.5552 14.3457ZM13.849 16.7543C13.7098 17.6771 13.0114 17.6771 12.3362 17.6771H11.9518L12.2214 15.9536C12.2374 15.8496 12.3268 15.7728 12.4311 15.7728H12.6073C13.0673 15.7728 13.5012 15.7728 13.7255 16.0375C13.859 16.1955 13.9001 16.4301 13.849 16.7543ZM21.1693 16.7247H19.9495C19.8456 16.7247 19.7558 16.8014 19.7398 16.9057L19.6858 17.25L19.6005 17.1253C19.3364 16.7383 18.7477 16.609 18.1599 16.609C16.8119 16.609 15.6607 17.6397 15.4365 19.0856C15.32 19.8067 15.4856 20.4963 15.8908 20.9773C16.2626 21.4195 16.7945 21.6038 17.4272 21.6038C18.5133 21.6038 19.1157 20.8987 19.1157 20.8987L19.0612 21.2409C19.0407 21.3718 19.1405 21.4891 19.2704 21.4891H20.3692C20.544 21.4891 20.6914 21.3612 20.7189 21.1872L21.3782 16.9721C21.3991 16.8425 21.2996 16.7247 21.1693 16.7247ZM19.469 19.1216C19.3513 19.8251 18.7982 20.2974 18.0929 20.2974C17.7387 20.2974 17.4555 20.1827 17.2738 19.9654C17.0935 19.7496 17.0249 19.4423 17.0823 19.1002C17.1923 18.4026 17.7547 17.915 18.4493 17.915C18.7956 17.915 19.0772 18.031 19.2627 18.2503C19.4485 18.4718 19.5222 18.7809 19.469 19.1216ZM26.4399 16.7245H27.6657C27.8374 16.7245 27.9375 16.9189 27.84 17.0611L23.7632 23.0023C23.6971 23.0986 23.5884 23.1558 23.4722 23.1558H22.2479C22.0756 23.1558 21.9749 22.9599 22.0747 22.8174L23.3441 21.0083L21.9941 17.008C21.9473 16.8689 22.049 16.7245 22.1955 16.7245H23.4C23.5565 16.7245 23.6946 16.8282 23.7397 16.9794L24.4562 19.3955L26.1469 16.8813C26.2131 16.7832 26.323 16.7245 26.4399 16.7245Z" fill="#253B80"/>
<path fill-rule="evenodd" clip-rule="evenodd" d="M39.7305 21.2412L40.7759 14.5261C40.7919 14.4218 40.8813 14.3451 40.9853 14.3447H42.1621C42.2921 14.3447 42.3919 14.4624 42.3714 14.5925L41.3405 21.1867C41.3136 21.3607 41.1654 21.4886 40.9908 21.4886H39.9397C39.8098 21.4886 39.71 21.3713 39.7305 21.2412ZM31.7246 14.3451H29.1769C29.003 14.3451 28.8548 14.473 28.8275 14.6466L27.7974 21.2412C27.7768 21.3713 27.8766 21.4886 28.0068 21.4886H29.3139C29.4355 21.4886 29.5394 21.3992 29.5584 21.2774L29.8507 19.4081C29.8776 19.2339 30.0261 19.1062 30.2 19.1062H31.006C32.6843 19.1062 33.6524 18.2864 33.9056 16.6619C34.0199 15.9512 33.9101 15.3928 33.5805 15.0016C33.2188 14.5723 32.5771 14.3451 31.7246 14.3451ZM32.0184 16.7536C31.8795 17.6765 31.1811 17.6765 30.5055 17.6765H30.1215L30.3915 15.953C30.4076 15.8489 30.4962 15.7722 30.6008 15.7722H30.7769C31.2366 15.7722 31.671 15.7722 31.895 16.0369C32.0288 16.1949 32.0695 16.4294 32.0184 16.7536ZM39.338 16.7241H38.1191C38.0143 16.7241 37.9254 16.8008 37.9097 16.905L37.8557 17.2494L37.7701 17.1246C37.506 16.7376 36.9176 16.6083 36.3298 16.6083C34.9818 16.6083 33.831 17.639 33.6067 19.0849C33.4906 19.8061 33.6555 20.4957 34.0607 20.9767C34.4332 21.4189 34.9644 21.6031 35.5971 21.6031C36.6832 21.6031 37.2854 20.898 37.2854 20.898L37.2311 21.2403C37.2106 21.3712 37.3104 21.4885 37.4412 21.4885H38.5395C38.7134 21.4885 38.8616 21.3606 38.8889 21.1865L39.5485 16.9715C39.5686 16.8419 39.4689 16.7241 39.338 16.7241ZM37.6379 19.121C37.5208 19.8245 36.9671 20.2968 36.2616 20.2968C35.9081 20.2968 35.6244 20.1821 35.4425 19.9648C35.2622 19.749 35.1945 19.4417 35.2512 19.0996C35.3617 18.4019 35.9234 17.9143 36.618 17.9143C36.9645 17.9143 37.2459 18.0304 37.4316 18.2497C37.6181 18.4712 37.6918 18.7802 37.6379 19.121Z" fill="#179BD7"/>
</svg>
