<svg width="57" height="39" viewBox="0 0 57 39" fill="none" xmlns="http://www.w3.org/2000/svg">
<rect x="0.5" y="0.5" width="56" height="38" rx="2.5" fill="white" stroke="#D9D9D9"/>
<path fill-rule="evenodd" clip-rule="evenodd" d="M17.304 26.4196H13.8509L11.2615 16.5626C11.1386 16.1092 10.8776 15.7083 10.4937 15.5194C9.53577 15.0446 8.48014 14.6668 7.32855 14.4762V14.0967H12.8912C13.6589 14.0967 14.2347 14.6668 14.3307 15.3288L15.6742 22.439L19.1256 14.0967H22.4828L17.304 26.4196ZM24.4021 26.4196H21.1409L23.8263 14.0967H27.0875L24.4021 26.4196ZM31.3066 17.5105C31.4026 16.8468 31.9784 16.4673 32.6501 16.4673C33.7058 16.372 34.8557 16.5626 35.8153 17.0358L36.3911 14.3826C35.4315 14.0031 34.3758 13.8125 33.4179 13.8125C30.2527 13.8125 27.9495 15.5194 27.9495 17.8884C27.9495 19.6906 29.5809 20.6369 30.7325 21.2069C31.9784 21.7753 32.4582 22.1548 32.3622 22.7233C32.3622 23.5759 31.4026 23.9554 30.4446 23.9554C29.293 23.9554 28.1414 23.6712 27.0875 23.1964L26.5117 25.8512C27.6633 26.3244 28.9091 26.5149 30.0607 26.5149C33.6098 26.6086 35.8153 24.9033 35.8153 22.3438C35.8153 19.1205 31.3066 18.9316 31.3066 17.5105ZM47.2286 26.4196L44.6392 14.0967H41.8578C41.282 14.0967 40.7062 14.4762 40.5143 15.0446L35.7194 26.4196H39.0765L39.7466 24.6191H43.8714L44.2553 26.4196H47.2286ZM42.3377 17.4153L43.2956 22.0596H40.6103L42.3377 17.4153Z" fill="#172B85"/>
</svg>
